<svg xmlns="http://www.w3.org/2000/svg" width="32" height="32"><path style="stroke:none;fill-rule:nonzero;fill:#fff;fill-opacity:1" d="M27.125 3.555a1.069 1.069 0 0 0-.797-.356H5.672a1.069 1.069 0 0 0-1.063 1.184l2.352 21.144c.047.43.351.79.766.91l7.98 2.278c.094.027.195.043.293.043.098 0 .195-.016.293-.043l7.977-2.277c.418-.122.718-.481.77-.91l2.347-21.145c.035-.301-.063-.602-.262-.828Zm-5.242 10.39-.477 7.77-5.37 1.758-5.376-1.758L10.457 18h2.719l.07 1.691 2.79.946 2.788-.946.203-3.043h-5.984l-.137-2.703h6.258l.203-2.703H9.98L9.777 8.54h12.446Zm0 0"/></svg>