<svg xmlns="http://www.w3.org/2000/svg" width="32" height="32"><path style="stroke:none;fill-rule:nonzero;fill:#fff;fill-opacity:1" d="M11.105 4.8a3.41 3.41 0 0 0-.285.013 2.4 2.4 0 0 0-1.03.32c-.794.465-1.247 1.37-1.395 2.547-.145 1.14.003 2.55.39 4.12-1.555.442-2.851 1.016-3.765 1.712-.942.715-1.5 1.562-1.5 2.488 0 .926.558 1.773 1.5 2.488.914.696 2.21 1.27 3.765 1.711-.387 1.57-.535 2.98-.39 4.121.148 1.176.601 2.082 1.394 2.547.383.223.813.336 1.285.336.297 0 .61-.047.938-.133 1.234-.332 2.605-1.28 3.988-2.636 1.383 1.355 2.754 2.304 3.988 2.636.328.086.64.133.938.133.469 0 .902-.113 1.285-.336.793-.465 1.246-1.37 1.394-2.547.141-1.14-.003-2.55-.39-4.12 1.555-.442 2.851-1.016 3.765-1.712.942-.715 1.5-1.562 1.5-2.488 0-.926-.558-1.773-1.5-2.488-.914-.696-2.21-1.27-3.765-1.711.387-1.567.535-2.98.39-4.121-.148-1.176-.601-2.082-1.394-2.547-.625-.363-1.383-.426-2.223-.203-1.234.332-2.605 1.28-3.988 2.636-1.383-1.355-2.754-2.304-3.988-2.636a3.621 3.621 0 0 0-.907-.13Zm-.003.317c.257.004.535.047.828.125 1.175.313 2.562 1.254 3.957 2.645a.16.16 0 0 0 .226 0c1.395-1.39 2.782-2.332 3.957-2.645.782-.21 1.438-.148 1.977.168.683.399 1.098 1.192 1.238 2.309.145 1.117.004 2.543-.406 4.144a.162.162 0 0 0 .113.196c1.594.437 2.899 1.027 3.793 1.707.895.68 1.375 1.437 1.375 2.234 0 .797-.48 1.555-1.375 2.234-.894.68-2.2 1.266-3.793 1.707a.162.162 0 0 0-.113.196c.41 1.601.55 3.027.406 4.144-.14 1.117-.555 1.91-1.238 2.309-.328.195-.7.293-1.121.293-.266 0-.551-.043-.856-.125v.004c-1.175-.317-2.562-1.258-3.957-2.649a.16.16 0 0 0-.226 0c-1.395 1.39-2.782 2.332-3.957 2.649v-.004c-.305.082-.59.125-.856.125-.422 0-.793-.098-1.12-.293-.684-.399-1.099-1.192-1.24-2.309-.144-1.117-.003-2.543.407-4.144a.162.162 0 0 0-.113-.196c-1.594-.441-2.899-1.027-3.793-1.707C4.32 17.554 3.84 16.797 3.84 16c0-.797.48-1.555 1.375-2.234.894-.68 2.2-1.27 3.793-1.707a.162.162 0 0 0 .113-.196c-.41-1.601-.55-3.027-.406-4.144.14-1.117.555-1.91 1.238-2.309.27-.16.567-.254.899-.281.082-.008.164-.012.25-.012Zm-.024.645c-.3 0-.57.062-.805.199-.562.332-.867 1.062-.953 2.05-.082.985.055 2.25.426 3.7.02.086.106.137.188.117a25.406 25.406 0 0 1 3.28-.504.158.158 0 0 0 .118-.066 25.924 25.924 0 0 1 2.121-2.684.158.158 0 0 0-.004-.219c-1.297-1.3-2.57-2.199-3.687-2.496a2.577 2.577 0 0 0-.684-.097Zm9.844 0c-.215 0-.442.031-.684.097-1.117.297-2.39 1.196-3.687 2.496a.158.158 0 0 0-.004.22c.719.788 1.433 1.69 2.121 2.683.027.039.07.062.117.066 1.172.106 2.274.278 3.281.504a.156.156 0 0 0 .188-.117c.371-1.45.508-2.715.426-3.7-.086-.988-.39-1.718-.953-2.05a1.567 1.567 0 0 0-.805-.2Zm-9.844.316c.18 0 .383.031.602.09.988.266 2.199 1.105 3.433 2.32a26.902 26.902 0 0 0-2 2.528 26.003 26.003 0 0 0-3.086.472c-.336-1.36-.464-2.55-.386-3.453.078-.933.367-1.547.793-1.797.18-.105.39-.16.644-.16Zm9.844 0c.254 0 .465.055.64.16h.004c.426.25.715.864.793 1.801.078.899-.05 2.09-.386 3.453-.961-.21-1.989-.375-3.086-.476-.649-.93-1.32-1.77-2-2.528 1.234-1.215 2.445-2.054 3.433-2.32.22-.059.422-.09.602-.09Zm-4.934 2.93c-.039 0-.078.02-.105.05a25.513 25.513 0 0 0-1.57 1.926.17.17 0 0 0-.012.172c.031.055.09.086.152.082.504-.023 1.02-.039 1.547-.039.527 0 1.043.016 1.547.04a.163.163 0 0 0 .152-.083.17.17 0 0 0-.012-.172 24.756 24.756 0 0 0-1.57-1.925.155.155 0 0 0-.129-.051Zm.012.41c.406.46.813.965 1.215 1.492-.402-.015-.8-.031-1.215-.031-.414 0-.813.016-1.215.031.402-.527.809-1.031 1.215-1.492Zm0 2.422c-.785 0-1.543.031-2.27.086a.152.152 0 0 0-.12.07 30.837 30.837 0 0 0-2.25 3.934.176.176 0 0 0 0 .14c.316.66.667 1.336 1.062 2.024a28.33 28.33 0 0 0 1.187 1.91c.028.043.07.066.121.07a30.236 30.236 0 0 0 4.543 0 .151.151 0 0 0 .118-.07c.41-.606.812-1.242 1.191-1.91.39-.688.742-1.364 1.059-2.024a.176.176 0 0 0 0-.14 30.024 30.024 0 0 0-2.25-3.934.152.152 0 0 0-.121-.07A30.236 30.236 0 0 0 16 11.84Zm-3.477.203c-.007-.004-.02 0-.027 0-.844.102-1.633.238-2.367.398a.177.177 0 0 0-.106.079.157.157 0 0 0-.011.125c.222.726.5 1.492.836 2.285a.165.165 0 0 0 .14.097.16.16 0 0 0 .149-.09 30.46 30.46 0 0 1 1.515-2.652.157.157 0 0 0 .004-.16.147.147 0 0 0-.133-.082Zm6.961 0h-.015a.153.153 0 0 0-.13.086c-.023.05-.019.11.009.16a30.46 30.46 0 0 1 1.516 2.648.16.16 0 0 0 .148.09.165.165 0 0 0 .14-.097c.336-.793.614-1.555.836-2.282a.15.15 0 0 0-.011-.128.167.167 0 0 0-.106-.079 25.07 25.07 0 0 0-2.367-.398h-.02ZM16 12.16c.75 0 1.473.031 2.168.078A28.986 28.986 0 0 1 20.313 16a28.986 28.986 0 0 1-2.145 3.762c-.695.047-1.418.078-2.168.078-.75 0-1.473-.031-2.168-.078A28.986 28.986 0 0 1 11.687 16a28.986 28.986 0 0 1 2.145-3.762A32.135 32.135 0 0 1 16 12.16Zm-3.8.258c-.208.332-.415.664-.614 1.012-.2.351-.383.699-.566 1.047a25.648 25.648 0 0 1-.641-1.754c.57-.121 1.184-.22 1.82-.305Zm7.6 0c.637.086 1.25.184 1.821.309-.18.558-.398 1.148-.644 1.75-.18-.348-.364-.696-.563-1.047-.2-.348-.406-.68-.613-1.012Zm-10.577.254c-.012 0-.024.004-.04.004-1.44.398-2.601.906-3.413 1.472-.813.567-1.29 1.196-1.29 1.852 0 .656.477 1.285 1.29 1.852.812.566 1.972 1.074 3.414 1.472a.162.162 0 0 0 .195-.11 26.06 26.06 0 0 1 1.21-3.148.158.158 0 0 0 0-.132 26.06 26.06 0 0 1-1.21-3.149.16.16 0 0 0-.156-.113Zm13.543 0a.159.159 0 0 0-.145.113 26.06 26.06 0 0 1-1.21 3.149.158.158 0 0 0 0 .132 26.06 26.06 0 0 1 1.21 3.149c.024.082.11.129.195.11 1.442-.4 2.602-.907 3.414-1.473.813-.567 1.29-1.196 1.29-1.852 0-.656-.477-1.285-1.29-1.852-.812-.566-1.972-1.074-3.414-1.472-.015-.004-.03-.004-.05-.004Zm-13.633.36c.3.952.676 1.948 1.14 2.968a26.072 26.072 0 0 0-1.14 2.969c-1.344-.387-2.442-.864-3.18-1.38-.766-.534-1.152-1.093-1.152-1.589s.386-1.055 1.152-1.59c.738-.515 1.836-.992 3.18-1.379Zm13.734 0c1.344.386 2.442.863 3.18 1.378.765.535 1.152 1.094 1.152 1.59s-.387 1.055-1.152 1.59c-.738.515-1.836.992-3.18 1.379-.3-.953-.676-1.95-1.14-2.969.464-1.02.84-2.016 1.14-2.969Zm-6.867.41A2.562 2.562 0 0 0 13.441 16 2.562 2.562 0 0 0 16 18.559 2.562 2.562 0 0 0 18.559 16 2.562 2.562 0 0 0 16 13.441Zm0 .636A1.92 1.92 0 0 1 17.922 16 1.92 1.92 0 0 1 16 17.922 1.92 1.92 0 0 1 14.078 16 1.92 1.92 0 0 1 16 14.078Zm-5.008 2.895a.157.157 0 0 0-.144.097 23.935 23.935 0 0 0-.836 2.282.15.15 0 0 0 .011.128c.024.04.059.067.106.079.73.16 1.523.296 2.367.398a.159.159 0 0 0 .156-.074.17.17 0 0 0 0-.172c-.27-.422-.535-.852-.789-1.3-.258-.45-.5-.9-.726-1.349a.16.16 0 0 0-.145-.09Zm10.008 0a.169.169 0 0 0-.137.09c-.226.449-.468.898-.726 1.347-.254.45-.52.88-.79 1.3a.17.17 0 0 0 0 .173.159.159 0 0 0 .157.074 25.285 25.285 0 0 0 2.367-.398.177.177 0 0 0 .106-.079.15.15 0 0 0 .011-.128c-.222-.723-.5-1.489-.836-2.282a.164.164 0 0 0-.152-.097Zm-9.977.55c.18.348.364.696.563 1.047.2.348.406.68.613 1.012a22.899 22.899 0 0 1-1.82-.309c.18-.558.398-1.148.644-1.75Zm9.954 0c.246.602.464 1.192.644 1.75-.57.125-1.183.223-1.82.309.207-.332.414-.664.613-1.012.2-.351.383-.699.563-1.047Zm1.125 2.645c-.012 0-.024 0-.04.004a25.238 25.238 0 0 1-3.277.504.158.158 0 0 0-.117.066 25.924 25.924 0 0 1-2.121 2.684.158.158 0 0 0 .004.219c1.297 1.3 2.57 2.199 3.687 2.496.578.156 1.09.129 1.489-.102.562-.332.867-1.062.953-2.05.082-.985-.055-2.25-.426-3.7a.155.155 0 0 0-.152-.121Zm-12.2 0a.155.155 0 0 0-.156.121c-.371 1.45-.508 2.715-.426 3.7.086.988.39 1.718.953 2.05.403.23.91.258 1.489.102 1.117-.297 2.39-1.196 3.687-2.496a.158.158 0 0 0 .004-.22 25.924 25.924 0 0 1-2.121-2.683.158.158 0 0 0-.117-.066 25.406 25.406 0 0 1-3.281-.504c-.008 0-.02-.004-.032-.004Zm12.07.34c.337 1.363.465 2.555.387 3.457-.078.933-.367 1.547-.793 1.797-.308.18-.718.21-1.246.07-.988-.266-2.199-1.105-3.433-2.32a26.404 26.404 0 0 0 2-2.528 25.206 25.206 0 0 0 3.086-.476Zm-11.945.004c.961.207 1.989.37 3.086.472.649.93 1.32 1.774 2 2.528-1.234 1.215-2.445 2.054-3.433 2.32-.528.14-.938.11-1.246-.07-.426-.25-.715-.864-.793-1.797-.079-.902.05-2.094.386-3.453Zm4.407.25a.157.157 0 0 0-.133.09.164.164 0 0 0 .011.164c.516.699 1.043 1.343 1.57 1.925.028.036.071.051.118.051s.09-.015.117-.05a25.513 25.513 0 0 0 1.57-1.926.17.17 0 0 0 .012-.172.163.163 0 0 0-.152-.082c-.504.023-1.02.039-1.547.039-.527 0-1.043-.016-1.547-.04h-.02Zm.351.328c.402.015.8.031 1.215.031.414 0 .813-.016 1.215-.031A27.451 27.451 0 0 1 16 22.582c-.406-.46-.813-.965-1.215-1.492Zm0 0"/></svg>