<svg xmlns="http://www.w3.org/2000/svg" width="32" height="32"><path style="stroke:none;fill-rule:nonzero;fill:#fff;fill-opacity:1" d="M28.977 1.488a.639.639 0 0 0-.473-.207H3.496a.639.639 0 0 0-.637.696L5.113 27.21a.644.644 0 0 0 .461.559l10.246 2.925a.68.68 0 0 0 .352 0l10.254-2.925a.648.648 0 0 0 .465-.56l2.25-25.233a.64.64 0 0 0-.164-.489ZM7.68 18.563l4.48 1.242V7.039h2.559v16.64l-7.04-1.952Zm16.675-4.485-.675 7.844-6.399 1.758v-2.946l4.32-1.187.16-2.399-4.48.774V7.039h7.68l-.223 2.563H19.84v5.117Zm0 0"/></svg>