<svg xmlns="http://www.w3.org/2000/svg" width="32" height="32"><path style="stroke:none;fill-rule:nonzero;fill:#fff;fill-opacity:1" d="M17.332 2.668c-4.957 0-6.242 3.77-6.676 5.957C11.25 8.371 12.715 8 13.332 8h.027c1.528.012 2 .441 2.309 1.855.223 1.036.336 2.649.332 3.477-.004 1.813-.441 3.063-.766 3.902l-.105.27c-.078.226-.172.433-.254.625-.082.203-.156.383-.207.539.32.07.578.176.75.25l.098.047c.03.015.062.023.09.047.566.343.394 1.133.394 1.758 0 .523.016 2.593 0 4.57.059.851.277 1.57.465 2.098.273.738.894 1.84 2.203 1.894 1.031.047 2.52-.492 2.664-2.66V21.34c.102-1.781 2.14-2.492 2.668-2.883-.074-.098-.355-.969-.652-1.43l-.055-.109c-.043-.105-.152-.293-.29-.543-.784-1.426-2.429-5.09-1.304-6.965.488-.82.969-1.297 2.301-1.41-.543-1.547-2.043-5.254-6.668-5.332Zm-8.75 0c-2.492.094-5.914 1.64-5.914 6.68 0 3.418 2.32 13.32 5.988 13.32.168 0 .332-.059.504-.148-.32-.282-.555-.645-.586-1.125-.058-.97.645-1.649 2.16-2.036.075-.011.457-.125 1.309-.605-.45-.192-.918-.453-1.305-.852-1.054-1.105-1.593-2.652-1.394-4.043.187-1.355.078-2.683.02-3.39l-.005-.067-.015-.234-.031-.492.042-1.313c.43-2.218 1.336-3.937 2.645-5.125-.988-.32-2.234-.613-3.418-.57Zm13.996.004a8.577 8.577 0 0 0-.73.05c1.34.934 2.57 2.438 3.406 4.84l.058 1.833c.004.062.016.125.028.187.039.23.094.543.05.918-.05.426-.105.863-.12 1.3-.008.434.046.856.109 1.305.117.797.055 1.602-.195 2.47l-.391 1.343c.102.227.203.46.3.707.02.063.044.11.06.152l.437.602c2.351-2.07 3.742-6.41 3.742-10.879 0-.863-.234-1.531-.535-1.918-1.785-2.285-4.262-2.941-6.219-2.91Zm-9.246 6.66c-.375 0-1.664.309-2.156.516l-.477.203a.17.17 0 0 0-.027.031c.004.074.015.164.027.273.055.766.172 2.188-.039 3.692-.14.988.262 2.113 1.047 2.933.45.47 1.25.774 1.836.907.035-.094.066-.172.11-.278.07-.175.156-.363.234-.574l.101-.281c.235-.61.672-1.75.68-3.426.004-.55-.059-1.558-.172-2.418-.016.024-.027.024-.039.047-.195.2-.504.375-.844.324-.55-.09-.972-.761-.945-1.011.031-.243.504-.375 1.055-.286.187.032.367.09.511.153.051.039.094.066.141.097-.004-.03-.004-.066-.016-.097-.125-.59-.23-.7-.234-.703-.004-.008-.145-.094-.793-.102Zm10.648.016c-.648.078-.828.25-1.062.632.453 0 .781.149.816.43.036.242-.168.469-.254.559a1.19 1.19 0 0 1-.656.324c-.043.008-.086.008-.133.008-.007 0-.015-.004-.023-.004.078 1.098.57 2.582 1.234 3.906.18-.637.254-1.254.16-1.91-.066-.484-.14-.984-.125-1.531.02-.496.075-.961.125-1.414.043-.348-.093-.672-.082-1Zm2.926 10.027a1.322 1.322 0 0 0-.426.031c-.84.172-1.398.219-1.808.192a4.784 4.784 0 0 1-.485.297c-.75.414-1.417.84-1.503 1.437v.777c.878.043 2.054-.504 2.734-.816 1.273-.59 2.234-1.82 1.488-1.918Zm-13.793.309c-.734.437-1.562.867-2.113.984-1.957.52-.746 1.129-.05 1.195.738.184 2.55.594 3.718-.36v-.733c0-.141.004-.282.016-.43 0-.078.004-.184.004-.277a3.09 3.09 0 0 0-.317-.098Zm0 0"/></svg>