<svg xmlns="http://www.w3.org/2000/svg" width="32" height="32"><path style="stroke:none;fill-rule:nonzero;fill:#111;fill-opacity:1" d="M28 11.535C28 25.2 16 29.332 16 29.332S4 25.199 4 11.535c0-1.668.133-3.07.266-4.203.199-1.664 1.336-3 2.933-3.398C9.266 3.332 12.535 2.668 16 2.668s6.734.664 8.867 1.266c1.598.398 2.735 1.8 2.934 3.398.066 1.133.199 2.602.199 4.203Zm0 0"/><path style="stroke:none;fill-rule:nonzero;fill:#4caf50;fill-opacity:1" d="M16 4.668c3.266 0 6.332.664 8.332 1.2.8.198 1.336.866 1.469 1.734.133 1.265.199 2.597.199 3.933 0 10.399-7.668 14.598-10 15.598-2.332-1.067-10-5.266-10-15.598 0-1.336.066-2.668.2-3.933a1.921 1.921 0 0 1 1.468-1.735c2-.535 5.066-1.199 8.332-1.199m0-2c-3.465 0-6.734.664-8.867 1.266-1.531.398-2.735 1.8-2.867 3.398A36.257 36.257 0 0 0 4 11.535C4 25.2 16 29.332 16 29.332s12-4.133 12-17.797c0-1.668-.133-3.07-.266-4.203-.199-1.664-1.336-3-2.933-3.398-2.067-.602-5.336-1.266-8.801-1.266Zm0 0"/><path style="stroke:none;fill-rule:nonzero;fill:#dcedc8;fill-opacity:1" d="M15.332 18.668h1.336V24h-1.336Zm0 0"/><path style="stroke:none;fill-rule:nonzero;fill:#4caf50;fill-opacity:1" d="M16 6.668S12 10 12 15.332C12 18.801 14.2 21 15.332 22L16 20l.668 2C17.801 21 20 18.8 20 15.332c0-5.332-4-8.664-4-8.664Zm0 0"/><path style="stroke:none;fill-rule:nonzero;fill:#81c784;fill-opacity:1" d="M16 6.668S12 10 12 15.332C12 18.801 14.2 21 15.332 22L16 20Zm0 0"/></svg>