<svg xmlns="http://www.w3.org/2000/svg" width="32" height="32" viewBox="0 0 48 48"><linearGradient id="a" x1="46.95" x2="24.45" y1="23.75" y2="25.25" gradientUnits="userSpaceOnUse"><stop offset="0" stop-color="#2aa4f4"/><stop offset="1" stop-color="#007ad9"/></linearGradient><path fill="url(#a)" d="M38.193 18.359a14.753 14.753 0 0 0-4.397-7.03l-4.598 4.598a8.239 8.239 0 0 1 3.014 5.648v1.508c.026 0 .05-.008.076-.008 2.322 0 4.212 1.89 4.212 4.212S34.61 31.5 32.288 31.5c-.026 0-.05-.007-.076-.008v.008H24V38h8.212v-.004c.026 0 .05.004.076.004C38.195 38 43 33.194 43 27.288c0-3.725-1.914-7.009-4.807-8.929z"/><path fill="#ffe082" d="m19.56 25.59 4.72-4.72-.011-.013-4.717 4.717.008.016z" opacity=".5"/><path fill="#90caf9" d="m19.56 25.59 4.72-4.72-.011-.013-4.717 4.717.008.016z" opacity=".5"/><linearGradient id="b" x1="24.835" x2="18.428" y1="9.608" y2="19.289" gradientUnits="userSpaceOnUse"><stop offset="0" stop-color="#f7572f"/><stop offset=".523" stop-color="#f7552d"/><stop offset=".712" stop-color="#f75026"/><stop offset=".846" stop-color="#f7461b"/><stop offset=".954" stop-color="#f7390a"/><stop offset="1" stop-color="#f73100"/></linearGradient><path fill="url(#b)" d="M24 7.576c-8.133 0-14.75 6.617-14.75 14.75 0 .233.024.46.035.69h6.5a8.278 8.278 0 0 1-.035-.69c0-4.549 3.701-8.25 8.25-8.25 1.969 0 3.778.696 5.198 1.851l4.598-4.598C31.188 9.003 27.761 7.576 24 7.576z"/><path fill="#90caf9" d="M15.712 31.5h-.002a4.154 4.154 0 0 1-1.712-.373l-4.71 4.71A10.638 10.638 0 0 0 15.71 38H24v-6.5h-8.288z" opacity=".5"/><linearGradient id="c" x1="31.305" x2="8.555" y1="40.347" y2="30.222" gradientUnits="userSpaceOnUse"><stop offset="0" stop-color="#4caf50"/><stop offset=".486" stop-color="#4aae50"/><stop offset=".661" stop-color="#43a94e"/><stop offset=".786" stop-color="#38a14c"/><stop offset=".887" stop-color="#279648"/><stop offset=".972" stop-color="#184"/><stop offset="1" stop-color="#088242"/></linearGradient><path fill="url(#c)" d="M15.712 31.5h-.002a4.154 4.154 0 0 1-1.712-.373l-4.71 4.71A10.638 10.638 0 0 0 15.71 38H24v-6.5h-8.288z"/><linearGradient id="d" x1="17.16" x2="7.285" y1="28.692" y2="19.067" gradientUnits="userSpaceOnUse"><stop offset="0" stop-color="#ffd747"/><stop offset=".482" stop-color="#ffd645"/><stop offset=".655" stop-color="#fed43e"/><stop offset=".779" stop-color="#fccf33"/><stop offset=".879" stop-color="#fac922"/><stop offset=".964" stop-color="#f7c10c"/><stop offset="1" stop-color="#f5bc00"/></linearGradient><path fill="url(#d)" d="M11.5 27.29c0-2.32 1.89-4.21 4.21-4.21a4.22 4.22 0 0 1 3.841 2.494l4.717-4.717a10.691 10.691 0 0 0-8.559-4.277C9.81 16.58 5 21.38 5 27.29c0 3.491 1.691 6.59 4.288 8.547l4.71-4.71A4.212 4.212 0 0 1 11.5 27.29z"/></svg>